<svg id="Capa_1" enable-background="new 0 0 512 512" height="512" viewBox="0 0 512 512" width="512" xmlns="http://www.w3.org/2000/svg"><g><path d="m49.48 345.69c-33.404 45.441-49.48 98.578-49.48 151.31 0 8.28 6.72 15 15 15h75.1c61.881-50.927 36.183-150.039-40.62-166.31z"/><path d="m365.22 457.5c-25.495 0-46.845 24.808-37.1 53.62.1.29.19.58.26.88h73.63c10.256-28.589-10.407-54.5-36.79-54.5z"/><circle cx="256" cy="359.5" r="15"/><g><path d="m474.98 110.27v31.78c0 4.569-2.174 8.765-5.05 11.23l-84.78 75.16h121.85c2.761 0 5-2.239 5-5v-108.17c0-2.761-2.239-5-5-5z"/><path d="m420.45 157.05h-59.83v53.04z"/><path d="m271 241.44v-114.39h173.98v-91.05c0-2.761-2.239-5-5-5h-168.98v-15.576c0-8.077-6.207-15.027-14.275-15.407-8.614-.406-15.725 6.458-15.725 14.983v226.43c-64.455 3.696-125.251 31.627-170.37 79.03 80.253 27.804 108.696 125.16 60.37 191.54h166.31c-9.5-44.806 24.644-84.5 67.91-84.5 43.464 0 77.361 39.826 67.91 84.5h63.87c8.293 0 15.001-6.736 15-15.029-.015-136.979-107.107-247.869-241-255.531zm-15 163.06c-24.81 0-45-20.19-45-45s20.19-45 45-45 45 20.19 45 45-20.19 45-45 45z"/></g></g></svg>