<svg id="Capa_1" enable-background="new 0 0 512 512" height="512" viewBox="0 0 512 512" width="512" xmlns="http://www.w3.org/2000/svg"><g><path d="m255.991 159.81c-53.04 0-96.19 43.15-96.19 96.19s43.15 96.19 96.19 96.19 96.19-43.15 96.19-96.19-43.151-96.19-96.19-96.19zm39.33 80.41-29.86 26.92c-5.744 5.2-14.564 5.148-20.28-.17l-17.25-16.1c-6.06-5.65-6.39-15.14-.74-21.2s15.14-6.39 21.2-.74l7.2 6.72 19.64-17.71c6.16-5.55 15.64-5.06 21.19 1.09 5.539 6.15 5.049 15.64-1.1 21.19z"/><path d="m484.881 311.55-11.17-6.44c-36.977-21.358-36.948-76.879 0-98.22l11.17-6.44c14.32-8.28 19.25-26.66 10.98-40.98l-36.33-62.94c-8.27-14.32-26.66-19.24-40.99-10.98l-11.11 6.42c-36.677 21.169-85.11-6.041-85.11-49.03v-12.94c0-16.54-13.45-30-30-30h-72.66c-16.55 0-30 13.46-30 30v12.94c0 43.001-48.439 70.195-85.11 49.03l-11.11-6.42c-14.392-8.295-32.709-3.352-40.99 10.98l-36.33 62.94c-8.27 14.32-3.34 32.7 10.98 40.98l11.17 6.44c37.024 21.385 36.873 76.922 0 98.22l-11.17 6.44c-14.32 8.28-19.25 26.66-10.98 40.98l36.33 62.94c8.28 14.32 26.66 19.25 40.98 10.98l11.12-6.42c36.678-21.169 85.11 6.041 85.11 49.03v12.94c0 16.54 13.45 30 30 30h72.66c16.55 0 30-13.46 30-30v-12.94c0-43.001 48.439-70.195 85.11-49.03l11.12 6.42c14.32 8.27 32.71 3.34 40.98-10.98l36.33-62.94c8.292-14.352 3.381-32.682-10.98-40.98zm-228.89 70.64c-69.58 0-126.19-56.61-126.19-126.19s56.61-126.19 126.19-126.19 126.19 56.61 126.19 126.19-56.61 126.19-126.19 126.19z"/></g></svg>